<svg width="102" height="18" viewBox="0 0 102 18" fill="none" xmlns="http://www.w3.org/2000/svg">
<path d="M0.64 14V0.12H2.52V14H0.64ZM1.92 14V12.28H9.36V14H1.92ZM14.985 14.2C14.1183 14.2 13.3317 13.9867 12.625 13.56C11.9183 13.12 11.3583 12.5267 10.945 11.78C10.545 11.0333 10.345 10.1933 10.345 9.26C10.345 8.32667 10.545 7.48667 10.945 6.74C11.3583 5.99333 11.9117 5.4 12.605 4.96C13.3117 4.52 14.105 4.3 14.985 4.3C15.705 4.3 16.345 4.45333 16.905 4.76C17.4783 5.05333 17.9383 5.46667 18.285 6C18.6317 6.52 18.825 7.12667 18.865 7.82V10.68C18.825 11.36 18.6317 11.9667 18.285 12.5C17.9517 13.0333 17.4983 13.4533 16.925 13.76C16.365 14.0533 15.7183 14.2 14.985 14.2ZM15.285 12.5C16.1783 12.5 16.8983 12.2 17.445 11.6C17.9917 10.9867 18.265 10.2067 18.265 9.26C18.265 8.60667 18.1383 8.04 17.885 7.56C17.645 7.06667 17.2983 6.68667 16.845 6.42C16.3917 6.14 15.865 6 15.265 6C14.665 6 14.1317 6.14 13.665 6.42C13.2117 6.7 12.8517 7.08667 12.585 7.58C12.3317 8.06 12.205 8.61333 12.205 9.24C12.205 9.88 12.3317 10.4467 12.585 10.94C12.8517 11.42 13.2183 11.8 13.685 12.08C14.1517 12.36 14.685 12.5 15.285 12.5ZM18.145 14V11.44L18.485 9.12L18.145 6.82V4.5H19.965V14H18.145ZM22.6056 14V4.5H24.4056V14H22.6056ZM23.5056 2.6C23.1723 2.6 22.899 2.49333 22.6856 2.28C22.4723 2.05333 22.3656 1.77333 22.3656 1.44C22.3656 1.12 22.4723 0.853333 22.6856 0.639999C22.899 0.413332 23.1723 0.299999 23.5056 0.299999C23.839 0.299999 24.1123 0.413332 24.3256 0.639999C24.539 0.853333 24.6456 1.12 24.6456 1.44C24.6456 1.77333 24.539 2.05333 24.3256 2.28C24.1123 2.49333 23.839 2.6 23.5056 2.6ZM27.0583 14V4.5H28.8583V14H27.0583ZM28.8583 8.58L28.1783 8.28C28.1783 7.06667 28.4583 6.1 29.0183 5.38C29.5783 4.66 30.3849 4.3 31.4383 4.3C31.9183 4.3 32.3516 4.38667 32.7383 4.56C33.1249 4.72 33.4849 4.99333 33.8183 5.38L32.6383 6.6C32.4383 6.38667 32.2183 6.23333 31.9783 6.14C31.7383 6.04667 31.4583 6 31.1383 6C30.4716 6 29.9249 6.21333 29.4983 6.64C29.0716 7.06667 28.8583 7.71333 28.8583 8.58ZM39.9173 14V0.12H41.7973V14H39.9173ZM41.1973 14V12.28H48.6373V14H41.1973ZM54.5623 14.2C53.629 14.2 52.789 13.98 52.0423 13.54C51.2957 13.1 50.7023 12.5067 50.2623 11.76C49.8223 11 49.6023 10.1533 49.6023 9.22C49.6023 8.3 49.8223 7.47333 50.2623 6.74C50.7023 5.99333 51.2957 5.4 52.0423 4.96C52.789 4.52 53.629 4.3 54.5623 4.3C55.4823 4.3 56.3157 4.52 57.0623 4.96C57.8223 5.38667 58.4223 5.97333 58.8623 6.72C59.3023 7.46667 59.5223 8.3 59.5223 9.22C59.5223 10.1533 59.3023 11 58.8623 11.76C58.4223 12.5067 57.8223 13.1 57.0623 13.54C56.3157 13.98 55.4823 14.2 54.5623 14.2ZM54.5623 12.46C55.1623 12.46 55.6957 12.32 56.1623 12.04C56.629 11.76 56.9957 11.38 57.2623 10.9C57.529 10.4067 57.6623 9.84667 57.6623 9.22C57.6623 8.60667 57.5223 8.06 57.2423 7.58C56.9757 7.1 56.609 6.72667 56.1423 6.46C55.689 6.18 55.1623 6.04 54.5623 6.04C53.9623 6.04 53.429 6.18 52.9623 6.46C52.4957 6.72667 52.129 7.1 51.8623 7.58C51.5957 8.06 51.4623 8.60667 51.4623 9.22C51.4623 9.84667 51.5957 10.4067 51.8623 10.9C52.129 11.38 52.4957 11.76 52.9623 12.04C53.429 12.32 53.9623 12.46 54.5623 12.46ZM63.0105 14V0.52H64.8105V14H63.0105ZM60.6705 6.14V4.5H72.8105V6.14H60.6705ZM68.6705 14V0.52H70.4705V14H68.6705ZM78.6848 14.2C77.7382 14.2 76.8848 13.9867 76.1248 13.56C75.3648 13.12 74.7648 12.5267 74.3248 11.78C73.8848 11.0333 73.6648 10.1867 73.6648 9.24C73.6648 8.30667 73.8782 7.46667 74.3048 6.72C74.7448 5.97333 75.3315 5.38667 76.0648 4.96C76.8115 4.52 77.6448 4.3 78.5648 4.3C79.4448 4.3 80.2182 4.5 80.8848 4.9C81.5648 5.3 82.0915 5.85333 82.4648 6.56C82.8515 7.26667 83.0448 8.06667 83.0448 8.96C83.0448 9.09333 83.0382 9.24 83.0248 9.4C83.0115 9.54667 82.9848 9.72 82.9448 9.92H74.9248V8.42H81.9848L81.3248 9C81.3248 8.36 81.2115 7.82 80.9848 7.38C80.7582 6.92667 80.4382 6.58 80.0248 6.34C79.6115 6.08667 79.1115 5.96 78.5248 5.96C77.9115 5.96 77.3715 6.09333 76.9048 6.36C76.4382 6.62667 76.0782 7 75.8248 7.48C75.5715 7.96 75.4448 8.52667 75.4448 9.18C75.4448 9.84667 75.5782 10.4333 75.8448 10.94C76.1115 11.4333 76.4915 11.82 76.9848 12.1C77.4782 12.3667 78.0448 12.5 78.6848 12.5C79.2182 12.5 79.7048 12.4067 80.1448 12.22C80.5982 12.0333 80.9848 11.7533 81.3048 11.38L82.4648 12.56C82.0115 13.0933 81.4515 13.5 80.7848 13.78C80.1315 14.06 79.4315 14.2 78.6848 14.2ZM85.0075 14V4.5H86.8075V14H85.0075ZM86.8075 8.58L86.1275 8.28C86.1275 7.06667 86.4075 6.1 86.9675 5.38C87.5275 4.66 88.3342 4.3 89.3875 4.3C89.8675 4.3 90.3008 4.38667 90.6875 4.56C91.0742 4.72 91.4342 4.99333 91.7675 5.38L90.5875 6.6C90.3875 6.38667 90.1675 6.23333 89.9275 6.14C89.6875 6.04667 89.4075 6 89.0875 6C88.4208 6 87.8742 6.21333 87.4475 6.64C87.0208 7.06667 86.8075 7.71333 86.8075 8.58ZM95.9791 14.08L91.8591 4.5H93.8591L96.9191 12H96.2791L99.4991 4.5H101.499L97.0591 14.08H95.9791ZM93.2591 17.98L96.0591 12.24L97.0591 14.08L95.2591 17.98H93.2591Z" fill="#FF0000"/>
</svg>
